# xmcd
#
# Track frame offsets: 
#        150
#        10223
#        32131
#        52557
#        83259
#        95367
#        114891
#        133046
#        150233
#        156798
#        172857
#        187250
#        207143
#        223336
#        243904
#        255603
#        276634
#        296122
#        318290
#
# Disc length: 4595 seconds
#
# Revision: 0
# Processed by: cddbd v1.5.1PL0 Copyright (c) Steve Scherf et al.
# Submitted via: ExactAudioCopy v0.90b4
#
DISCID=fb11f113
DTITLE=Dr. John - N'Awlinz: Dis Dat or D'udda
DYEAR=2004
DGENRE=Blues Rock
TTITLE0=Quatre Parishe
TTITLE1=When The Saints Go Marching In ft. Mavis Staples
TTITLE2=Lay My Burden Down ft. Mavis Staples and The Dirty Dozen Brass
TTITLE2=Band
TTITLE3=Marie Laveau ft. Cyril Neville and The Mardi Gras Indians
TTITLE4=Dear Old Southland ft. Nicholas Payton (trumpet)
TTITLE5=Dis, Dat or D'Udda
TTITLE6=Chickee Le Pas ft. Cyril Neville and The Mardi Gras Indians
TTITLE7=The Monkey ft. Eddie Bo and Dave Bartholomew
TTITLE8=Shango Tango ft. Willie Tee
TTITLE9=I Ate Up The Apple Tree ft. Randy Newman
TTITLE10=You Ain't Such a Much ft. Willie Nelson and Snooks Eaglin
TTITLE11=Life's A One Way Ticket
TTITLE12=Hen Layin' Rooster ft. B. B. King and Clarence "Gatemouth" Br
TTITLE12=own (viola)
TTITLE13=Stakalee
TTITLE14=Eh Las Bas ft. Leroy Jones
TTITLE15=St. James Infirmary ft. Eddie Bo
TTITLE16=Time Marches On ft. B. B. King, Willie Nelson and The Dirty D
TTITLE16=ozen Brass Band
TTITLE17=I'm Goin' Home ft. Cyril Neville
TTITLE18=Data Track
EXTD=
EXTT0=
EXTT1=
EXTT2=
EXTT3=
EXTT4=
EXTT5=
EXTT6=
EXTT7=
EXTT8=
EXTT9=
EXTT10=
EXTT11=
EXTT12=
EXTT13=
EXTT14=
EXTT15=
EXTT16=
EXTT17=
EXTT18=
PLAYORDER=
